<svg width="58" height="60" viewBox="0 0 58 60" fill="none" xmlns="http://www.w3.org/2000/svg">
<path d="M28.9807 0L34.9807 14L28.9807 28L22.9807 14L28.9807 0Z" fill="url(#paint0_linear_605_33)"/>
<path d="M28.9807 60L34.9807 46L28.9807 32L22.9807 46L28.9807 60Z" fill="url(#paint1_linear_605_33)"/>
<path d="M3 14.9999L18.1244 16.8037L27.2487 28.9999L12.1244 27.196L3 14.9999Z" fill="url(#paint2_linear_605_33)"/>
<path d="M54.9615 44.9999L45.8372 32.8037L30.7128 30.9999L39.8372 43.196L54.9615 44.9999Z" fill="url(#paint3_linear_605_33)"/>
<path d="M54.9615 14.9999L39.8372 16.8037L30.7128 28.9999L45.8372 27.196L54.9615 14.9999Z" fill="url(#paint4_linear_605_33)"/>
<path d="M3 44.9999L12.1244 32.8037L27.2487 30.9999L18.1244 43.196L3 44.9999Z" fill="url(#paint5_linear_605_33)"/>
<defs>
<linearGradient id="paint0_linear_605_33" x1="28.9807" y1="0" x2="28.9807" y2="28" gradientUnits="userSpaceOnUse">
<stop stop-color="#FDA131"/>
<stop offset="0.502304" stop-color="#FDA131"/>
<stop offset="1" stop-color="#FDA131"/>
</linearGradient>
<linearGradient id="paint1_linear_605_33" x1="28.9807" y1="60" x2="28.9807" y2="32" gradientUnits="userSpaceOnUse">
<stop stop-color="#FDA131"/>
<stop offset="0.502304" stop-color="#FDA131"/>
<stop offset="1" stop-color="#FDA131"/>
</linearGradient>
<linearGradient id="paint2_linear_605_33" x1="3" y1="14.9999" x2="27.2487" y2="28.9999" gradientUnits="userSpaceOnUse">
<stop stop-color="#FDA131"/>
<stop offset="0.502304" stop-color="#FDA131"/>
<stop offset="1" stop-color="#FDA131"/>
</linearGradient>
<linearGradient id="paint3_linear_605_33" x1="54.9615" y1="44.9999" x2="30.7128" y2="30.9999" gradientUnits="userSpaceOnUse">
<stop stop-color="#FDA131"/>
<stop offset="0.502304" stop-color="#FDA131"/>
<stop offset="1" stop-color="#FDA131"/>
</linearGradient>
<linearGradient id="paint4_linear_605_33" x1="54.9615" y1="14.9999" x2="30.7128" y2="28.9999" gradientUnits="userSpaceOnUse">
<stop stop-color="#FDA131"/>
<stop offset="0.502304" stop-color="#FDA131"/>
<stop offset="1" stop-color="#FDA131"/>
</linearGradient>
<linearGradient id="paint5_linear_605_33" x1="3" y1="44.9999" x2="27.2487" y2="30.9999" gradientUnits="userSpaceOnUse">
<stop stop-color="#FDA131"/>
<stop offset="0.502304" stop-color="#FDA131"/>
<stop offset="1" stop-color="#FDA131"/>
</linearGradient>
</defs>
</svg>
